<svg id="svg2" xmlns="http://www.w3.org/2000/svg" xmlns:xlink="http://www.w3.org/1999/xlink" viewBox="0 0 830.81 143.61"><defs><style>.cls-1{fill:none;}.cls-2{clip-path:url(#clip-path);}.cls-3{fill:#fab20b;}.cls-4{fill:#231f20;}.cls-5{fill:#fff;}.cls-6{clip-path:url(#clip-path-2);}</style><clipPath id="clip-path" transform="translate(-100.6 -329.69)"><rect class="cls-1" x="100.6" y="329.69" width="366.52" height="107.73"/></clipPath><clipPath id="clip-path-2" transform="translate(-100.6 -329.69)"><path class="cls-1" d="M115.44,383.56a39,39,0,1,0,39-39,39,39,0,0,0-39,39"/></clipPath></defs><g id="g10"><g id="g12"><g id="g14"><g class="cls-2"><g id="g16"><path id="path22" class="cls-3" d="M210.28,340.32H236.7l19.61,62.53L277,340.32h23.79l-31.44,86.32H240.77" transform="translate(-100.6 -329.69)"/><path id="path24" class="cls-3" d="M353.64,367.46c-1.07-8.73-7.17-12-14-12-14.46,0-18.89,13.27-18.89,29.06,0,5.26.12,27,18.65,27,12.68,0,14-9.21,14.47-12.56h24.87c-.12,27-27.62,29.3-38.86,29.3-8.37,0-23.19-1.44-32.76-11.48S296,393,296,384.08c0-11.84,2.75-23.68,10.88-32.88,8.85-10.05,20.21-12.68,32.76-12.68,14,0,24.64,3.35,31.45,10.52a26.32,26.32,0,0,1,7.17,18.42" transform="translate(-100.6 -329.69)"/><path id="path26" class="cls-3" d="M409.12,340.32v51.29c0,4.66.36,9.45,2.76,13,3.22,4.78,8.84,7.06,14.7,7.06,15.19,0,17.22-12.32,17.22-20.93V340.32h23.32v50c0,9.56-1.32,20-6.7,26.3-8.37,10.28-23.79,12.31-34.67,12.31-40.78,0-40.89-25.34-40.89-39.45l.11-49.14" transform="translate(-100.6 -329.69)"/><path id="path28" class="cls-3" d="M208.33,383.56a53.87,53.87,0,1,1-53.87-53.87,53.87,53.87,0,0,1,53.87,53.87" transform="translate(-100.6 -329.69)"/><path id="path30" class="cls-4" d="M154.46,422.58a39,39,0,1,1,39-39,39,39,0,0,1-39,39m0-90.88a51.86,51.86,0,1,0,51.86,51.86,51.86,51.86,0,0,0-51.86-51.86" transform="translate(-100.6 -329.69)"/><path id="path32" class="cls-5" d="M127.34,422.32a1.91,1.91,0,0,0-.52.43.53.53,0,0,0-.1.41c.07.21.31.4.46.66s.12.24.06.34-.2.07-.29,0c-.29-.19-.55-.45-.85-.63s-.64-.31-.94-.5c-.08-.05-.2-.12-.11-.27s.27,0,.55-.07a3.64,3.64,0,0,0,1.14-.62l4.69-3.07c.5-.34.62-.29.71-.22s.14.21.09.59l-.88,6.26a1.35,1.35,0,0,0,.22,1c.08.15.18.21.09.35s-.18.09-.3,0c-.4-.25-.75-.57-1.14-.82s-.84-.42-1.24-.67c-.06,0-.21-.14-.13-.28s.25-.09.42,0,.44-.06.57-.26a1.71,1.71,0,0,0,.15-.61l.5-3.5c.06-.39.07-.49,0-.51s-.14,0-.31.12" transform="translate(-100.6 -329.69)"/><path id="path34" class="cls-5" d="M126.11,416a.88.88,0,0,0-.06-1.18.22.22,0,0,1,0-.33c.11-.13.34.07.56.26s.52.54.83.8.69.48,1,.75c.15.13.27.23.16.35s-.27.06-.37,0a.8.8,0,0,0-.92.35l-3,3.58a.75.75,0,0,0,0,1.17.22.22,0,0,1,0,.33c-.1.13-.33-.07-.56-.26s-.59-.6-.91-.87-.68-.47-1-.74c-.11-.09-.23-.2-.13-.32s.36,0,.46.06c.39.16.66-.13.88-.39" transform="translate(-100.6 -329.69)"/><path id="path36" class="cls-5" d="M120.81,415c.09-.08.27-.24-.17-.73-.63-.7-1.21-.7-2,0a1.35,1.35,0,0,0-.21,2c.37.41.55.37.83.12Zm-.22,2.32a.79.79,0,0,0-.11,1.17.23.23,0,0,1,0,.33c-.08.06-.16.07-.32-.11s-.29-.45-.79-1-1-.94-1.25-1.28c-.93-1-1.7-2.29-.42-3.43a1.41,1.41,0,0,1,1.5-.3c.23.07.47.26.55.19a15.69,15.69,0,0,0,1-3.12.38.38,0,0,0-.06-.33c-.07-.09-.17-.15-.23-.22s-.06-.17,0-.25c.33-.3,1.19.58,1.42.83a1.11,1.11,0,0,1,.13,1.09l-.85,2.39c-.12.34-.2.64.05.93s.27.22.37.13l1.32-1.18c.64-.57.54-1,.27-1.3a.22.22,0,0,1,0-.33c.1-.09.21,0,.53.34s.49.67.77,1,.62.56.89.87c.1.11.21.23.08.35s-.28,0-.37-.05a.83.83,0,0,0-1,.18" transform="translate(-100.6 -329.69)"/><path id="path38" class="cls-5" d="M116,405.21a.79.79,0,0,0-.29,1.17.21.21,0,0,1-.11.3c-.13.08-.23-.05-.46-.43s-.38-.74-.6-1.09-.49-.68-.7-1c-.12-.19-.11-.28,0-.34s.28,0,.36.11a.82.82,0,0,0,1,0l1.29-.8a6.46,6.46,0,0,1,2.42,2.23,3.42,3.42,0,0,1-1,5,3.81,3.81,0,0,1-5.32-1.12,6.67,6.67,0,0,1-.73-2.25c-.13-.22-.36,0-.52-.24a.12.12,0,0,1,0-.16l1.16-.91a4.67,4.67,0,0,1,.39-.3c.13-.09.24-.09.29,0s-.09.33-.13.41c-.88,1.61-.64,2.32-.22,3,.9,1.47,2.34,1.25,3.76.38s2.76-2.17,1.83-3.69c-.49-.79-1-1-1.85-.49" transform="translate(-100.6 -329.69)"/><path id="path40" class="cls-5" d="M114.57,399.84a.88.88,0,0,0,.48-1.08.22.22,0,0,1,.14-.3c.15-.06.27.22.39.49s.22.71.38,1.1.41.73.57,1.11c.08.18.14.33,0,.39s-.27-.07-.34-.15a.79.79,0,0,0-1-.11l-4.31,1.86a.75.75,0,0,0-.48,1.06.21.21,0,0,1-.14.3c-.15.07-.27-.21-.39-.49s-.25-.79-.42-1.17-.4-.74-.57-1.12c-.06-.13-.12-.27,0-.34s.32.17.39.25c.27.33.64.19,1,.05" transform="translate(-100.6 -329.69)"/><path id="path42" class="cls-5" d="M109.49,397a1.78,1.78,0,0,0-.28.58c0,.05.05.07.29,0l3.6-.91a1,1,0,0,0,.85-.91c0-.27-.08-.6.11-.65s.26.19.31.37c.08.36.09.73.18,1.08s.26.69.35,1c0,.1,0,.21-.11.25s-.24-.06-.36-.19a1.1,1.1,0,0,0-1.3-.4l-3.8,1c-.39.1-.9.39-1,.81s-.07.52-.23.56-.18,0-.2-.09c-.08-.3-.11-.61-.19-.92s-.19-.59-.27-.9,0-.29,0-.41l3.06-4.92c.11-.18.2-.35.18-.41s-.16-.06-.3,0l-2.29.57c-.66.17-1.27.36-1.25,1,0,.28,0,.56-.16.6s-.21-.15-.26-.33c-.09-.35-.09-.73-.18-1.08s-.26-.68-.35-1c0-.09,0-.21.11-.25s.24.07.36.2a1.11,1.11,0,0,0,1.3.39l4.86-1.22c.44-.12.57-.1.61,0a2.13,2.13,0,0,1-.35.75" transform="translate(-100.6 -329.69)"/><path id="path44" class="cls-5" d="M111.52,387a.87.87,0,0,0,.78-.88.21.21,0,0,1,.23-.24c.17,0,.2.28.23.58s0,.75,0,1.16.16.82.2,1.23c0,.2,0,.36-.13.37s-.23-.15-.28-.25c-.16-.4-.56-.43-.9-.4L107,389a.75.75,0,0,0-.78.87.21.21,0,0,1-.23.24c-.17,0-.2-.28-.22-.58s0-.84,0-1.25-.17-.82-.21-1.24c0-.14,0-.3.14-.31s.24.26.28.35c.17.4.56.38.91.35" transform="translate(-100.6 -329.69)"/><path id="path46" class="cls-5" d="M109.26,383a1.09,1.09,0,0,0,.28.13c.1,0,.13-.17.15-.43l0-1.12c0-.33,0-.46,0-.46a1.52,1.52,0,0,0-.42.14l-1.46.64c-.13.07-.21.1-.21.18s.21.15.26.18Zm-3.52-1.34c-.26-.15-.35-.21-.35-.3s.1-.1.23-.16l5.76-2.35c.41-.17.91-.29,1-.69s.14-.43.3-.42.16.11.16.28c0,.5-.13,1-.15,1.45s0,1,0,1.46c0,.14-.08.2-.15.2a.25.25,0,0,1-.21-.28.55.55,0,0,0-.54-.46,3.57,3.57,0,0,0-1.33.41c-.14.13-.19.32-.22.83l-.06,1.59c0,.53,1,.87,1.46.89.15,0,.36-.25.43-.46s.2-.67.36-.66.17.12.16.29c0,.35-.12.7-.13,1.05s0,.71,0,1.07c0,.14,0,.27-.18.26s-.22-.27-.32-.42a1,1,0,0,0-.39-.36" transform="translate(-100.6 -329.69)"/><path id="path48" class="cls-5" d="M110.26,366.21a4.43,4.43,0,0,1,.53.09c.11,0,.23.12.19.22s-.31.15-.39.17a3,3,0,0,0-2.41,1.81c-.39,1.26,0,2.41,2.2,3.09,1.53.48,3.27,0,3.69-1.39a3.27,3.27,0,0,0-.28-2.43c-.08-.16-.23-.37-.19-.53s.09-.09.18-.06a3.65,3.65,0,0,1-3.46,6.15,3.58,3.58,0,0,1-2.66-4.74,9.14,9.14,0,0,1,1.22-2c.08-.25-.26-.26-.17-.53a.13.13,0,0,1,.15-.1" transform="translate(-100.6 -329.69)"/><path id="path50" class="cls-5" d="M117.5,363.25c.59-1.08-.15-2.46-1.45-3.17s-3.65-1-4.45.44c-.59,1.08.15,2.46,1.46,3.17s3.65,1,4.44-.44m-6.12-3.3a3.55,3.55,0,0,1,5-1.63,4,4,0,0,1,1.33,5.58,3.48,3.48,0,0,1-4.87,1.58,4.09,4.09,0,0,1-1.43-5.53" transform="translate(-100.6 -329.69)"/><path id="path52" class="cls-5" d="M116.13,355.51a1.28,1.28,0,0,0-1.2-.37c-.35.15-.47.24-.6.13s-.1-.14,0-.21c.2-.24.44-.45.64-.68s.38-.5.58-.74.21-.19.37-.15l4.51,1.23a3.53,3.53,0,0,0,.66.16c0-.05,0-.24-.13-.46l-1.81-4.57c-.09-.23-.08-.28,0-.34.2-.23.44-.44.64-.68s.38-.5.58-.74c0,0,.1,0,.18.05s0,.28-.07.6-.18.55.28.95l2.79,2.42c.65.56,1.11.89,1.88.48.2-.11.3-.15.43,0s0,.27-.15.43c-.3.29-.57.6-.87.89s-.51.65-.76,1c-.13.16-.27.32-.39.21s-.11-.21,0-.42,0-.41-.48-.78l-2.52-2.18c-.07-.07-.22-.18-.25-.15s0,.2.14.48l1.86,4.34c.06.15.1.33,0,.42s-.2.06-.31,0l-4.66-1.35c-.15,0-.31-.09-.36,0s0,.09.13.22l2.07,1.79a1.34,1.34,0,0,0,1.68.3c.16-.08.29-.12.42,0s0,.24-.06.32c-.24.27-.54.49-.78.77s-.41.6-.65.88c-.07.08-.14.16-.27.06s-.08-.24,0-.42a1.11,1.11,0,0,0-.44-1.27" transform="translate(-100.6 -329.69)"/><path id="path54" class="cls-5" d="M123.84,347.25c-.23-.32-.66-.71-1.08-.64s-.52.12-.61,0-.06-.16,0-.21c.26-.19.54-.33.79-.51s.48-.4.74-.59.24-.13.39-.06l4.1,2.26a2.89,2.89,0,0,0,.6.31c.06,0,0-.25,0-.48l-.68-4.87c0-.25,0-.29.06-.33.25-.18.53-.33.78-.51s.49-.4.74-.58c.05,0,.11,0,.16.08s0,.29-.21.57-.3.5,0,1l2.15,3c.5.7.87,1.13,1.71.91.22-.06.33-.07.43.06s-.08.26-.25.38c-.36.21-.7.45-1.06.66s-.65.52-1,.79c-.17.12-.34.24-.44.11s-.05-.23.06-.42,0-.41-.28-.87l-1.93-2.71c-.06-.08-.18-.23-.21-.2s0,.19,0,.49l.79,4.66c0,.17,0,.34-.08.42s-.21,0-.31,0l-4.21-2.41c-.14-.08-.28-.15-.34-.11s0,.08.07.24l1.59,2.23a1.34,1.34,0,0,0,1.57.69c.17-.05.3-.05.4.08s0,.24-.13.3c-.3.21-.64.35-.94.57s-.54.49-.84.7c-.08.06-.18.12-.27,0s0-.25,0-.41a1.11,1.11,0,0,0-.13-1.34" transform="translate(-100.6 -329.69)"/><path id="path56" class="cls-5" d="M138.25,344.63c1.13-.48,1.42-2,.84-3.39s-2.23-3.07-3.76-2.43c-1.14.48-1.42,2-.84,3.4s2.23,3.07,3.76,2.42m-2.74-6.4a3.54,3.54,0,0,1,4.9,1.82,4,4,0,0,1-2.43,5.2,3.48,3.48,0,0,1-4.8-1.8,4.08,4.08,0,0,1,2.33-5.22" transform="translate(-100.6 -329.69)"/><path id="path58" class="cls-5" d="M143.05,338a2.05,2.05,0,0,0-.56-.31c-.05,0-.07,0,0,.29l.75,3.64a1,1,0,0,0,.87.89c.27,0,.6-.06.64.14s-.2.25-.39.29c-.35.07-.72.06-1.08.14s-.7.22-1.06.3c-.1,0-.21,0-.24-.12s.08-.24.21-.36a1.12,1.12,0,0,0,.46-1.28l-.78-3.84a1.35,1.35,0,0,0-.76-1c-.37-.09-.52-.09-.55-.26s0-.17.1-.18c.3-.06.62-.08.92-.15s.61-.16.91-.23.31,0,.42.06l4.77,3.28a1.09,1.09,0,0,0,.41.21c.08,0,.06-.17,0-.31l-.47-2.31c-.14-.68-.3-1.29-1-1.3-.28,0-.57,0-.61-.19s.17-.2.35-.24c.35-.07.73-.06,1.09-.13s.69-.23,1-.3c.1,0,.21-.05.25.12s-.08.23-.22.35a1.13,1.13,0,0,0-.45,1.28l1,4.91c.09.45.08.58-.05.6s-.42-.17-.73-.38" transform="translate(-100.6 -329.69)"/><path id="path60" class="cls-5" d="M150.5,335.42a.93.93,0,0,0-.45-.55c-.11-.07-.24-.09-.24-.25s.14-.17.28-.17c.4,0,.81.1,1.21.11s.82-.07,1.22-.06c.18,0,.27,0,.27.17s-.17.19-.33.24a.44.44,0,0,0-.34.47,4.63,4.63,0,0,0,.22.66l1.13,3.42c0,.1.06.19.09.19a.53.53,0,0,0,.13-.21l1.08-2.28-.55-1.68a.9.9,0,0,0-.45-.55c-.11-.07-.23-.08-.23-.25s.14-.16.27-.16c.41,0,.81.09,1.22.1s.81-.07,1.22-.06c.17,0,.27,0,.26.17s-.17.19-.32.24a.41.41,0,0,0-.33.42,2.48,2.48,0,0,0,.21.71l1.08,3.16c0,.13.07.19.11.19s.14-.17.21-.37l1-2.68a2.4,2.4,0,0,0,.17-.8c0-.45-.56-.41-.79-.56s-.29-.2-.28-.3.12-.16.23-.16c.35,0,.7.1,1.06.1s.71-.07,1.06-.06c.09,0,.24,0,.23.17s-.22.16-.43.35-.34.44-.62,1.14l-2,5c-.23.55-.31.61-.41.61s-.22-.06-.35-.44l-1.13-3.32c-.06-.18-.11-.28-.14-.28s-.09.1-.2.32l-1.49,3.1c-.24.5-.32.56-.44.56s-.19-.07-.33-.5" transform="translate(-100.6 -329.69)"/><path id="path62" class="cls-5" d="M162.08,336.91c.1-.5.21-1.27-.21-1.41s-.5-.24-.47-.41.21-.13.41-.08a23.46,23.46,0,0,0,2.34.57c.78.16,1.58.24,2.37.4.23,0,.43.09.39.3s-.13.44-.18.66,0,.46-.1.68-.07.19-.22.16-.16-.23-.15-.32c.07-.66-.18-1-1.37-1.23l-.66-.14c-.28,0-.37,0-.46.42l-.37,1.78c0,.16.13.25.54.34a1.16,1.16,0,0,0,1.33-.37c.17-.26.22-.28.32-.26s.12.18.09.32c-.06.3-.17.6-.23.9s-.08.62-.15.93c0,.14-.06.28-.25.25s-.09-.34-.17-.57c-.17-.47-.45-.6-1-.72s-.61,0-.66.27l-.36,1.74c-.16.76,0,.9.49,1a2.79,2.79,0,0,0,2.14-.25c.42-.26.59-.59.75-.55s.15.12.13.22a3.47,3.47,0,0,1-.32.78,1.35,1.35,0,0,1-1.26.68c-.68-.14-1.35-.36-2-.51s-1.38-.2-2.06-.34c-.32-.07-.47-.1-.44-.26s.25-.19.46-.24c.37-.1.48-.33.6-.91" transform="translate(-100.6 -329.69)"/><path id="path64" class="cls-5" d="M169.85,341a1.13,1.13,0,0,0-.21.22c0,.09.11.19.35.28l1,.42c.31.12.43.15.44.11a1.16,1.16,0,0,0,0-.44l-.12-1.59c0-.15,0-.23-.1-.26s-.21.15-.25.19Zm2.43-2.87c.23-.2.31-.27.4-.24s.06.13.07.27l.32,6.22c0,.43,0,.95.3,1.2s.36.27.3.43-.16.11-.31.05c-.47-.18-.9-.44-1.32-.62s-.92-.27-1.39-.46c-.13,0-.16-.14-.14-.2a.26.26,0,0,1,.34-.11.55.55,0,0,0,.61-.36,3.46,3.46,0,0,0,0-1.39c-.07-.18-.24-.29-.71-.48l-1.48-.59c-.49-.2-1.15.67-1.32,1.09-.06.14.11.42.29.56s.57.4.5.56-.16.11-.32,0c-.33-.13-.62-.34-.95-.47s-.69-.18-1-.32c-.13-.05-.25-.1-.19-.25s.33-.12.5-.16a1,1,0,0,0,.47-.25" transform="translate(-100.6 -329.69)"/><path id="path66" class="cls-5" d="M177.75,341.81a.75.75,0,0,0-.22-1.15.2.2,0,0,1-.07-.31.18.18,0,0,1,.26-.06c.42.26.81.6,1.24.86s.9.46,1.24.67c.12.08.25.16.17.3s-.27.1-.37.06a.84.84,0,0,0-.91.46l-2.37,3.83c-.41.68-.36.82.09,1.1a2.79,2.79,0,0,0,2.1.5c.49-.1.76-.33,1-.2s.11.29,0,.48a1.64,1.64,0,0,1-2.19.44c-.59-.37-1.76-1.19-2.35-1.56-.33-.2-.7-.33-1-.53s-.37-.23-.28-.38.24-.07.51-.07a1,1,0,0,0,.84-.61" transform="translate(-100.6 -329.69)"/><path id="path68" class="cls-5" d="M184.36,346c.24-.29.1-.51-.29-.83-.77-.64-1.17-.86-2-.23-.05,0-.12,0-.21,0s-.1-.17-.06-.22l.25-.25.75-.76c.14-.13.21-.14.4,0,.81.68,1.57,1.41,2.39,2.08s1.7,1.3,2.51,2c.2.17.2.21,0,.5l-.6.89a2,2,0,0,1-.12.19c0,.05-.15,0-.21,0s-.12-.14-.09-.19c.45-1,.16-1.31-.61-1.94-.44-.37-.65-.39-.87-.13l-3.07,3.73c-.52.64,0,1.08.2,1.42,0,.11.21.2.06.37s-.2.05-.3,0c-.47-.39-.91-.85-1.4-1.26s-1-.74-1.5-1.13c-.1-.08-.2-.16-.09-.29s.26,0,.38,0c.37.1.91.56,1.43-.07" transform="translate(-100.6 -329.69)"/><path id="path70" class="cls-5" d="M190.51,355c.23.28.38.33.57.18l1.1-.92a.76.76,0,0,0,.16-1.16.22.22,0,0,1,0-.33c.13-.11.32.13.51.36s.47.69.74,1,.6.59.86.91c.1.11.2.23.06.34s-.28,0-.37-.06a.87.87,0,0,0-1,.14l-3.6,3a.76.76,0,0,0-.16,1.16.22.22,0,0,1-.05.33c-.12.1-.32-.13-.51-.36s-.47-.69-.74-1-.59-.59-.86-.91c-.09-.11-.19-.23-.07-.34s.29,0,.38.06a.83.83,0,0,0,1-.15l1.54-1.28c.25-.21.22-.28,0-.51l-1.63-2c-.12-.13-.28,0-.39.06l-1.55,1.29a.75.75,0,0,0-.16,1.16.21.21,0,0,1,0,.32c-.13.11-.32-.12-.52-.35s-.46-.69-.73-1-.6-.58-.86-.9c-.1-.12-.2-.24-.07-.34s.28,0,.37.05a.83.83,0,0,0,1-.14l3.59-3a.75.75,0,0,0,.16-1.16.22.22,0,0,1,.06-.33c.12-.11.32.12.51.36s.47.69.73,1,.6.59.87.9c.09.11.19.24.06.34s-.28,0-.37-.05a.83.83,0,0,0-1,.14l-1.11.92c-.16.13-.17.29,0,.5" transform="translate(-100.6 -329.69)"/><path id="path72" class="cls-5" d="M196.88,361.37a.73.73,0,0,0,.47-1.07.2.2,0,0,1,.11-.28c.14-.06.22,0,.43.47s.26.79.42,1.17.41.73.58,1.11.07.31,0,.35-.21-.07-.36-.19a.88.88,0,0,0-1-.11l-3,1.3a2,2,0,0,0-1.07,2.76c.75,1.71,2.3,1.52,3.36,1.06l2.42-1.07a.8.8,0,0,0,.48-1.13c-.06-.16-.06-.34.1-.4s.2,0,.3.28.22.59.34.87.29.56.42.84.06.24-.06.29-.24-.1-.38-.23-.43-.23-1.26.14l-2,.89c-2.12.93-3.67.31-4.62-1.85-.77-1.74-.48-3.08,1.33-3.88" transform="translate(-100.6 -329.69)"/><path id="path74" class="cls-5" d="M199.83,371.51a2.21,2.21,0,0,0,.3-.57s0-.07-.3,0l-3.62.8c-.5.11-.84.36-.88.88,0,.27.06.6-.13.65s-.26-.2-.29-.39c-.08-.35-.08-.72-.16-1.08s-.23-.69-.31-1c0-.1-.05-.21.11-.25s.25.08.36.21a1.12,1.12,0,0,0,1.29.44l3.83-.83c.38-.09.91-.36,1-.78s.09-.52.25-.55.18,0,.19.09c.07.31.09.62.16.92s.17.6.24.91,0,.3,0,.41l-3.21,4.83a1.08,1.08,0,0,0-.2.4c0,.08.16.06.31,0l2.3-.5c.67-.15,1.29-.32,1.29-1,0-.27,0-.56.18-.6s.2.16.24.34c.08.36.08.73.15,1.08s.24.7.32,1.06c0,.1,0,.21-.12.25s-.24-.08-.35-.22a1.14,1.14,0,0,0-1.29-.43l-4.9,1.07c-.45.1-.57.09-.6,0s.17-.43.37-.74" transform="translate(-100.6 -329.69)"/><path id="path76" class="cls-5" d="M197.48,381.44a.86.86,0,0,0-.8.86.22.22,0,0,1-.24.23c-.16,0-.18-.29-.2-.59s0-.74,0-1.15-.14-.83-.17-1.25c0-.19,0-.35.15-.36s.23.16.26.26a.79.79,0,0,0,.9.42l4.67-.31a.76.76,0,0,0,.81-.85.21.21,0,0,1,.23-.23c.17,0,.19.29.21.59s0,.84,0,1.25.14.82.17,1.24c0,.15,0,.3-.15.31s-.24-.26-.28-.36c-.15-.4-.54-.4-.89-.37" transform="translate(-100.6 -329.69)"/><path id="path78" class="cls-5" d="M201.44,389.11a1.87,1.87,0,0,0,.63.25.48.48,0,0,0,.4-.11c.16-.15.21-.45.37-.71s.15-.22.27-.21.15.13.15.23c0,.36-.13.7-.16,1.06s0,.71,0,1.06c0,.1,0,.24-.18.23s-.15-.23-.33-.45a3.47,3.47,0,0,0-1.09-.71l-4.93-2.67c-.53-.29-.54-.41-.53-.53s.13-.22.48-.35l5.93-2.21a1.27,1.27,0,0,0,.74-.64c.1-.14.1-.26.27-.25s.16.12.15.27c0,.46-.15.93-.18,1.39s0,.94,0,1.41c0,.07,0,.26-.19.25s-.19-.19-.23-.36-.25-.35-.49-.37a2,2,0,0,0-.61.15l-3.32,1.22c-.37.14-.46.17-.47.22s.08.12.26.22" transform="translate(-100.6 -329.69)"/><path id="path80" class="cls-5" d="M200.83,392.73c.5.12,1.27.25,1.42-.16s.26-.49.42-.45.12.21.07.41a23.3,23.3,0,0,0-.65,2.31c-.18.78-.29,1.58-.48,2.36-.06.23-.1.43-.31.38s-.43-.14-.65-.2-.46-.07-.68-.12-.19-.08-.15-.23.23-.15.32-.13c.66.08,1-.15,1.28-1.33l.16-.66c.07-.28,0-.38-.4-.47l-1.77-.43c-.16,0-.25.12-.35.52-.14.59-.08,1.08.31,1.34s.28.23.26.34-.18.11-.32.08c-.31-.08-.6-.19-.91-.26s-.61-.11-.91-.19-.29-.06-.24-.26.34-.08.57-.15c.48-.15.61-.43.75-1s0-.61-.24-.67l-1.73-.42c-.75-.18-.89-.08-1,.46a2.78,2.78,0,0,0,.17,2.15c.25.42.57.61.53.77s-.13.14-.23.11a2.86,2.86,0,0,1-.76-.34,1.39,1.39,0,0,1-.65-1.29c.17-.67.42-1.33.58-2s.25-1.37.41-2c.08-.32.12-.47.28-.43s.18.26.23.46c.08.37.3.49.88.63" transform="translate(-100.6 -329.69)"/><path id="path82" class="cls-5" d="M197.08,401c-.11,0-.33-.15-.6.46-.37.86-.12,1.39.83,1.8a1.36,1.36,0,0,0,1.89-.64c.22-.51.1-.66-.24-.81Zm2.2-.78a.77.77,0,0,0,1.1-.38.24.24,0,0,1,.32-.1c.1.05.14.11,0,.34s-.29.45-.58,1.13c-.23.51-.46,1.25-.64,1.67-.56,1.28-1.37,2.5-3,1.82a1.39,1.39,0,0,1-.89-1.25c0-.23,0-.53-.06-.57a14.89,14.89,0,0,0-3.24.41c-.15.05-.24.1-.28.19s-.06.22-.1.31-.13.12-.24.07c-.41-.17,0-1.33.16-1.64a1.08,1.08,0,0,1,.93-.57l2.53-.23c.36,0,.67-.08.82-.43s.09-.34,0-.39l-1.62-.71c-.79-.34-1.1-.09-1.3.3a.23.23,0,0,1-.32.1c-.12-.06-.1-.18.09-.62s.41-.73.58-1.11.25-.8.42-1.18c.06-.13.12-.27.27-.21s.13.25.12.36a.82.82,0,0,0,.58.83" transform="translate(-100.6 -329.69)"/><path id="path84" class="cls-5" d="M192.53,405.09a3,3,0,0,1,.32.12c.06,0,.11.12,0,.27s-.38.07-.55,0a2.45,2.45,0,0,0-2.44.94,1.2,1.2,0,0,0,.3,1.76c1.43.92,2.82-2.77,5.21-1.24a2.08,2.08,0,0,1,.58,2.88c-.48.74-1.11,1-1.29,1.26-.06.09-.07.37-.12.44s-.14.11-.25,0a15.64,15.64,0,0,0-1.48-.78.2.2,0,0,1-.08-.29c.11-.16.27-.11.53,0a2.26,2.26,0,0,0,2.26-.83,1.07,1.07,0,0,0-.17-1.52c-1.48-.95-2.78,2.8-5.2,1.25a2.32,2.32,0,0,1-.67-3.22,9.66,9.66,0,0,1,1.31-1.4c.07-.07.17-.21.31-.16" transform="translate(-100.6 -329.69)"/><path id="path86" class="cls-5" d="M187.28,411.46a.88.88,0,0,0-1.18.07.21.21,0,0,1-.33,0c-.13-.1.06-.34.25-.57s.54-.51.8-.84.46-.69.73-1c.13-.15.22-.27.35-.17s.06.28,0,.38c-.17.4.1.7.36.92l3.62,3a.76.76,0,0,0,1.17-.07.21.21,0,0,1,.33,0c.13.1-.06.34-.25.57s-.59.59-.86.92-.46.69-.73,1c-.09.11-.18.24-.31.13s0-.35.05-.46c.16-.38-.13-.65-.4-.87" transform="translate(-100.6 -329.69)"/><path id="path88" class="cls-5" d="M187.71,418.18c.26.28.49.17.86-.17.73-.68,1-1.05.49-2,0,0,0-.12.08-.19s.17-.09.22,0,.14.19.22.28l.64.85c.11.15.11.22-.06.39-.78.71-1.61,1.37-2.38,2.09s-1.51,1.52-2.27,2.23c-.19.17-.24.17-.5-.06l-.8-.71-.17-.15c0-.05,0-.16.07-.21s.15-.1.2-.06c.89.58,1.27.34,2-.35.41-.38.47-.59.23-.84l-3.28-3.54c-.56-.6-1.07-.11-1.43,0-.12,0-.23.18-.39,0s0-.2.07-.28c.46-.42,1-.8,1.44-1.22s.87-.93,1.32-1.35c.1-.09.19-.17.3-.05s0,.27,0,.38c-.15.35-.68.83-.11,1.43" transform="translate(-100.6 -329.69)"/><path id="path90" class="cls-5" d="M178.74,424.51a1,1,0,0,0,.14.51c.16.25.53.17,1,0a.23.23,0,0,1,.31.1c.09.14,0,.2-.11.27-.31.2-.66.33-1,.52s-.56.47-.87.67c-.09.06-.2.13-.29,0s0-.2.09-.36.22-.52.2-1.29l-.08-2.59a1.07,1.07,0,0,0-.1-.6l-.88-1.38c-.29-.43-.62-.66-1.12-.43-.21.1-.4.22-.51,0s.12-.34.37-.5.83-.44,1.25-.71.64-.52,1-.77.49-.32.61-.13-.06.3-.25.46c-.41.35-.34.75-.06,1.18l.71,1.1a.48.48,0,0,0,.22.18l2.92,1.6c.64.35,1,.38,1.22.26s.41-.17.5,0-.06.23-.21.33c-.4.26-.83.44-1.23.69s-.74.58-1.13.84c-.16.1-.31.2-.4.06s.16-.3.24-.46.12-.24.07-.31a1.21,1.21,0,0,0-.47-.37l-1.76-1c-.28-.16-.4-.2-.46-.16a1.22,1.22,0,0,0,0,.47" transform="translate(-100.6 -329.69)"/><path id="path92" class="cls-5" d="M139.47,426.75a4.81,4.81,0,0,0-.62,0,1.57,1.57,0,0,0-.39.1,1.71,1.71,0,0,0-.33.22,4.44,4.44,0,0,0-.45.44l-.08,0a4.72,4.72,0,0,0,0-.63,1.41,1.41,0,0,0-.09-.38,2.27,2.27,0,0,0-.23-.34c-.1-.12-.25-.27-.43-.45l0-.07.63,0a2.18,2.18,0,0,0,.39-.1,2.08,2.08,0,0,0,.33-.22c.12-.11.27-.25.46-.45l.07,0c0,.27,0,.48,0,.64a1.57,1.57,0,0,0,.11.38,1.11,1.11,0,0,0,.22.33,4.18,4.18,0,0,0,.43.45" transform="translate(-100.6 -329.69)"/><path id="path94" class="cls-5" d="M145.63,425.65c0-.19-.07-.32-.28-.36a2.37,2.37,0,0,0-.5,0c-.13,0-.23-.07-.2-.24s.3-.18.43-.19a3.88,3.88,0,0,0,1.72-.32c.08,0,.19-.13.27-.11s.16.08.13.24l-1.09,5.68a.72.72,0,0,0,.41.89c.16.09.43.16.4.32s-.13.15-.38.1c-.44-.08-.87-.25-1.31-.34s-.89-.08-1.33-.17c-.29-.05-.35-.11-.33-.23s.25-.16.51-.15a.68.68,0,0,0,.67-.53" transform="translate(-100.6 -329.69)"/><path id="path96" class="cls-5" d="M150,426.27c-.07,1,1.45,1.48,1.71,1.5.56,0,.84-.47.88-1a1.34,1.34,0,0,0-1.37-1.45,1,1,0,0,0-1.22.91m.38,2.65a.89.89,0,0,0-.24-.09c-.14,0-.53.41-.58,1.09a1.61,1.61,0,0,0,1.53,1.9c.53,0,1.41-.21,1.47-1a1,1,0,0,0-.59-1.12Zm3.16-2.25a1.26,1.26,0,0,1-1.07,1.23c-.1,0-.24.06-.25.11s.12.09.19.13a2.27,2.27,0,0,1,1.24,2.11c-.12,1.63-1.49,2.07-2.88,2-1.2-.08-2.3-.75-2.2-2.12a1.55,1.55,0,0,1,1.07-1.43c.09,0,.2-.05.2-.07s-.08-.09-.16-.16a1.88,1.88,0,0,1-.65-1.64,2.11,2.11,0,0,1,2.45-1.83c.92.07,2.14.6,2.06,1.71" transform="translate(-100.6 -329.69)"/><path id="path98" class="cls-5" d="M156.47,425.76c-.68,0-.82.6-1.06.62-.07,0-.18,0-.18-.12,0-.35.92-1.21,1.92-1.28a1.4,1.4,0,0,1,1.61,1.16,2,2,0,0,1-1,1.54.2.2,0,0,0-.06.11s0,0,.1.06a1.48,1.48,0,0,1,1.57,1.57,2.67,2.67,0,0,1-2.54,2.88c-.86.06-1.89-.41-1.91-.74,0-.1,0-.2.17-.2.28,0,.49.51,1.42.45A1.61,1.61,0,0,0,158,430c-.05-.65-.39-1.25-1.11-1.21-.14,0-.31.08-.45.08s-.18-.06-.19-.19.25-.28.37-.36a1.75,1.75,0,0,0,.83-1.55.89.89,0,0,0-1-1" transform="translate(-100.6 -329.69)"/><path id="path100" class="cls-5" d="M162.52,428.39a.8.8,0,0,0-.26,0c-.14,0-.4.53-.27,1.19a1.6,1.6,0,0,0,2,1.44c.52-.1,1.31-.58,1.15-1.36a1,1,0,0,0-.87-.92Zm-1.06-2.45c.2,1,1.78,1,2,1a.91.91,0,0,0,.6-1.16,1.35,1.35,0,0,0-1.7-1,1,1,0,0,0-.94,1.21m3.51-.55a1.27,1.27,0,0,1-.7,1.47c-.09.06-.22.12-.21.16s.13.06.21.08a2.27,2.27,0,0,1,1.75,1.71c.32,1.61-.89,2.38-2.25,2.65-1.19.24-2.42-.11-2.69-1.47a1.53,1.53,0,0,1,.66-1.66c.07-.05.18-.1.18-.12s-.11-.06-.21-.11a1.88,1.88,0,0,1-1.06-1.41,2.11,2.11,0,0,1,1.89-2.41c.9-.17,2.22,0,2.43,1.11" transform="translate(-100.6 -329.69)"/><path id="path102" class="cls-5" d="M173,425.35q-.27.27-.42.45a1.5,1.5,0,0,0-.21.34,1.23,1.23,0,0,0-.1.39,5.29,5.29,0,0,0,0,.63l-.07,0-.47-.43a1.73,1.73,0,0,0-.33-.21,1.87,1.87,0,0,0-.39-.09,5.41,5.41,0,0,0-.63,0l0-.08c.18-.18.33-.33.43-.45a1.5,1.5,0,0,0,.21-.34,1.61,1.61,0,0,0,.09-.39c0-.16,0-.37,0-.63l.07,0a4.9,4.9,0,0,0,.46.42,1.59,1.59,0,0,0,.34.22,1.57,1.57,0,0,0,.39.1l.62,0" transform="translate(-100.6 -329.69)"/><path id="path104" class="cls-3" d="M193.49,383.56a39,39,0,1,1-39-39,39,39,0,0,1,39,39" transform="translate(-100.6 -329.69)"/></g></g></g><g id="g106"><g class="cls-6"><g id="g108"><path id="path114" class="cls-4" d="M146.3,380.63,146,404.86a.32.32,0,0,0,.12.28,5.83,5.83,0,0,0,2.56.3,6,6,0,0,0,2.56-.31.36.36,0,0,0,.12-.27l-.2-24.25a4.36,4.36,0,0,0-2.44-.48,4.18,4.18,0,0,0-2.46.5" transform="translate(-100.6 -329.69)"/><path id="path116" class="cls-4" d="M148.74,373c-3,0-3.68,1-3.68,1l0,.23a1.15,1.15,0,0,1,.84.66,18.48,18.48,0,0,1,.45,3.85v.21a7.16,7.16,0,0,1,4.86,0v-.27a11.66,11.66,0,0,1,.47-3.78,1.23,1.23,0,0,1,.77-.72l0-.31s-.73-.84-3.71-.84" transform="translate(-100.6 -329.69)"/><path id="path118" class="cls-4" d="M157.59,380.61l-.21,24.25a.34.34,0,0,0,.13.27,5.94,5.94,0,0,0,2.56.31,5.87,5.87,0,0,0,2.56-.3.32.32,0,0,0,.12-.28l-.26-24.23a4.18,4.18,0,0,0-2.46-.5,4.33,4.33,0,0,0-2.44.48" transform="translate(-100.6 -329.69)"/><path id="path120" class="cls-4" d="M163.73,374s-.7-1-3.68-1-3.71.84-3.71.84l0,.31a1.25,1.25,0,0,1,.77.72,11.66,11.66,0,0,1,.47,3.78v.27a5.21,5.21,0,0,1,2.42-.42,5,5,0,0,1,2.44.44v-.22a19,19,0,0,1,.44-3.85,1.14,1.14,0,0,1,.85-.65" transform="translate(-100.6 -329.69)"/><path id="path122" class="cls-4" d="M180.41,404.57h-5.68c-.19,0-.17-.21-.17-.21l-.85-28.11s0-.15.16-.15h3.84c.11,0,.14.13.14.13l2.76,28.1s0,.24-.2.24m-1.65-29.33a.17.17,0,0,0-.17-.16h-5.51c-.14,0-.16.16-.16.16l.81,30.34a.19.19,0,0,0,.19.22h7.76a.21.21,0,0,0,.23-.22" transform="translate(-100.6 -329.69)"/><path id="path124" class="cls-4" d="M134.37,404.36s0,.21-.17.21h-5.69c-.23,0-.2-.24-.2-.24l2.76-28.1s0-.13.14-.13h3.84c.12,0,.16.15.16.15Zm.82,1.22.81-30.34s0-.16-.16-.16h-5.51c-.15,0-.16.16-.16.16L127,405.58a.22.22,0,0,0,.23.23H135c.22,0,.19-.23.19-.23" transform="translate(-100.6 -329.69)"/><path id="path126" class="cls-4" d="M181.91,370.67a3.73,3.73,0,0,0-1,.9,2.46,2.46,0,0,0-.32,1.09H170.7a2.53,2.53,0,0,0-.23-1.07,2.8,2.8,0,0,0-.85-.92v-.3a.24.24,0,0,1,.22-.17h2.24a5.06,5.06,0,0,0,7.48,0h2.19c.12,0,.16.16.16.16Zm-15.55-1.94H142.57v-1.34h23.79ZM147.82,363a9.39,9.39,0,0,0,2.49.41c1.53,0,2-.43,2.38-.09s0,.63,0,1a.63.63,0,0,0,1.14.39.82.82,0,0,1-.32-.66.86.86,0,1,1,1.71,0,.82.82,0,0,1-.32.66.63.63,0,0,0,1.14-.39c0-.37-.24-.78,0-1s.85,0,2.38.09A9.39,9.39,0,0,0,161,363c.06,0-.41,1.7-2.9,2.32a16.53,16.53,0,0,1-3.67.47h0a16.53,16.53,0,0,1-3.67-.47c-2.49-.62-3-2.28-2.9-2.32m-8.52,7.64a2.91,2.91,0,0,0-.85.92,2.53,2.53,0,0,0-.23,1.07h-9.89a2.46,2.46,0,0,0-.32-1.09,3.73,3.73,0,0,0-1-.9v-.31s0-.16.16-.16h2.19a5.06,5.06,0,0,0,7.48,0h2.24a.23.23,0,0,1,.22.17Zm44.38-3.31-17.32,0,.16-1.21,16.62,0s.05-.76.05-.95a3,3,0,0,1,.54-1.69l2.11-2.7V360a.12.12,0,0,0-.13-.14H165.66c-.11,0-.14.06-.14.12v1.58H143.4V360c0-.06,0-.12-.14-.12h-20a.13.13,0,0,0-.13.14v.8l2.11,2.7a3,3,0,0,1,.54,1.69c0,.19,0,.95,0,.95l16.62,0,.17,1.21-17.33,0-5.57,41.25h4.74l3.9-35h9.77l-.46,35h3.86l1.09-1.67V371.43h23.79v35.51l1.1,1.67h3.85l-.46-35h9.77l3.91,35h4.74" transform="translate(-100.6 -329.69)"/></g></g></g><g id="g128"><g class="cls-2"><g id="g130"><path id="path136" class="cls-4" d="M144.85,355.75c0,1.63,1,1.07,1,1.47,0,0,0,.15-.22.15s-.55,0-1,0-.8,0-.95,0-.18-.08-.18-.14c0-.34.78-.1.82-1.1l.13-3.83c.06-1.57-1-1.12-1-1.54a.13.13,0,0,1,.12-.13c.12,0,.26,0,.57,0s.57,0,.88,0c.11,0,.2,0,.34.27l2.09,4.57c0,.09.07.15.12.15s.15-.17.16-.2l2.21-4.6a.21.21,0,0,1,.23-.19c.23,0,.41,0,.56,0s.35,0,.61,0,.28,0,.28.11c0,.34-.93,0-.89,1.07l.16,4.21c0,1.25.92.83.92,1.19,0,.16-.12.16-.46.16s-.54,0-.81,0c-.62,0-.85,0-1.07,0s-.44,0-.44-.15.74,0,.69-1.06l-.14-2.89c0-.28,0-.42-.08-.42s-.16.19-.3.5l-1.8,3.76c0,.12-.09.27-.24.27s-.19-.16-.24-.27l-1.85-4.1c0-.06-.07-.16-.1-.16s-.07.17-.07.23" transform="translate(-100.6 -329.69)"/><path id="path138" class="cls-4" d="M157.93,352.67c0,.1,0,.32-.11.32s-.22-.2-.29-.33a2.87,2.87,0,0,0-2.41-1.74,2.39,2.39,0,0,0-2.18,2.61c0,1.34.76,3.23,2.58,3.23,1.48,0,2.13-1.25,2.37-1.25.05,0,.14.05.14.11a3,3,0,0,1-3,1.81,3.1,3.1,0,0,1-3.22-3.19,3.46,3.46,0,0,1,3.38-3.7,7,7,0,0,1,2.18.58c.17,0,.18-.31.32-.31s.11,0,.11.05" transform="translate(-100.6 -329.69)"/><path id="path140" class="cls-4" d="M162.22,357.22c-.11.24-.16.3-.26.3s-.19-.1-.36-.5l-2.37-5.54a.83.83,0,0,0-.69-.57s-.15-.06-.15-.13c0-.23.3-.15.44-.15.31,0,.64,0,1,0,.61,0,.89,0,1,0s.35,0,.35.15-.57.11-.57.51a3.91,3.91,0,0,0,.36,1.32l1.24,3.06c0,.07.07.2.13.2s.09-.13.12-.2l1.31-2.89a2.76,2.76,0,0,0,.3-1.12c0-.9-1-.54-1-.88,0-.18.28-.15.39-.15.28,0,.55,0,.82,0s.53,0,.8,0,.33,0,.33.13-.39.17-.64.73" transform="translate(-100.6 -329.69)"/><path id="path142" class="cls-4" d="M148.81,413.4c0,.25.37.25.66.25,1.5,0,1.56-.55,1.56-1.13a1.53,1.53,0,0,0-1.54-1.7c-.37,0-.68,0-.68.59Zm-1.21-1.76c0-1.1-1.07-.74-1.07-1.09,0-.1.1-.15.22-.15.45,0,.53,0,1.15,0s1.33,0,2,0c2.16,0,2.35,1.39,2.35,1.84a1.48,1.48,0,0,1-.57,1.23c-.29.23-.57.32-.57.42s.84,1.48,1.55,2.72a.36.36,0,0,0,.35.16c.1,0,.2-.06.3-.06a.14.14,0,0,1,.14.14c0,.31-.65.52-1,.52-.78,0-1.1-.62-1.4-1.19l-.83-1.56a.79.79,0,0,0-.89-.52c-.52,0-.47.07-.47.42v1.7c0,1.06,1,.65,1,1,0,.09-.08.15-.3.15s-.44,0-.85,0-1,0-1.52,0c-.11,0-.31,0-.31-.17s.79,0,.79-1.22" transform="translate(-100.6 -329.69)"/><path id="path144" class="cls-4" d="M155.69,416c0,1.23,1,.86,1,1.2,0,.17-.1.15-.23.15-.69,0-1.12,0-1.34,0-.4,0-1.15,0-1.22,0s-.2,0-.2-.15.79-.06.79-1.3v-4.33c0-1-1-.64-1-1,0-.06,0-.19.28-.19.07,0,.61,0,1.36,0l1.53,0c1.26,0,2.49.47,2.49,1.91a2,2,0,0,1-2.09,2c-1,0-1-.25-1-.29s0-.18.14-.18a4,4,0,0,0,.47.06,1.28,1.28,0,0,0,1.28-1.37,1.57,1.57,0,0,0-1.6-1.7c-.44,0-.6.2-.6.64" transform="translate(-100.6 -329.69)"/><path id="path146" class="cls-4" d="M162.12,416.15c0,1.21,1.1.76,1.1,1.07,0,.11-.09.15-.31.15-.37,0-.73,0-1.5,0-.42,0-.85,0-1.1,0a.11.11,0,0,1-.11-.12c0-.34.71-.09.71-1V411.5c0-.89-1.11-.62-1.11-1,0-.17.24-.14.33-.14.38,0,.77,0,1.11,0s.71,0,1.27,0c.3,0,.35,0,.35.14,0,.33-.74,0-.74.91" transform="translate(-100.6 -329.69)"/><path id="path148" class="cls-4" d="M167,353.54l9.22.49-9.22.49s-1.55,0-1.55-.49,1.55-.49,1.55-.49" transform="translate(-100.6 -329.69)"/><path id="path150" class="cls-4" d="M141.42,354.52,132.2,354l9.22-.49s1.55,0,1.55.49-1.55.49-1.55.49" transform="translate(-100.6 -329.69)"/><path id="path152" class="cls-4" d="M165.27,413.4l9.22.49-9.22.49s-1.55,0-1.55-.49,1.55-.49,1.55-.49" transform="translate(-100.6 -329.69)"/><path id="path154" class="cls-4" d="M144,414.38l-9.22-.49,9.22-.49s1.55,0,1.55.49-1.55.49-1.55.49" transform="translate(-100.6 -329.69)"/></g></g></g><path id="path156" class="cls-4" d="M505.84,426.66v-3H487.15v-14h17.26v-3H487.15V394h18v-3H483.94v35.62Zm7.78-14.26c0-4.44,2.22-8.53,7.11-8.53,4,0,6.51,2.51,6.51,6.81v16h3V411.17c0-2.86-.64-10-8.73-10a8.53,8.53,0,0,0-7.75,4.48l-.1-.09-.14-3.65h-3.06c.1,1.67.24,3.65.24,5.57v19.19h3Zm18.54-10.5,10.12,24.76h3.35l9.82-24.76h-3.26L544,422.57l-8.54-20.67Zm26.4,0v24.76h3V401.9ZM561.77,391h-3.45v3.7h3.45Zm8.58,20.72c.1-4.73,2.42-7.89,6.81-7.89.59,0,1.23.15,1.83.2V401.2c-1,0-2-.09-3,0a6.36,6.36,0,0,0-5.58,4.39h-.1l-.15-3.65h-3.05c.09,1.67.29,3.65.24,5.57v19.19h3Zm29.08,2.52c0,4.59-2.37,10.41-8.34,10.41s-8.34-5.82-8.34-10.41,2.37-10.41,8.34-10.41S599.43,409.69,599.43,414.28Zm-8.34-13.12c-7.89,0-11.54,6.61-11.54,13.12s3.65,13.12,11.54,13.12,11.55-6.61,11.55-13.12-3.66-13.12-11.55-13.12Zm18.85,11.24c0-4.44,2.22-8.53,7.1-8.53,4.05,0,6.51,2.51,6.51,6.81v16h3V411.17c0-2.86-.64-10-8.73-10a8.51,8.51,0,0,0-7.74,4.48l-.1-.09-.15-3.65h-3.06c.1,1.67.25,3.65.25,5.57v19.19h3Zm25.13-10.5H632c.1,1.67.25,3.65.25,5.57v19.19h3V412.4c0-4.44,2.22-8.53,7.1-8.53,4,0,6.51,2.51,6.51,6.81v16h3V412.4c0-4.44,2.22-8.53,7.11-8.53,4,0,6.51,2.51,6.51,6.81v16h3V411.17c0-2.86-.64-10-8.73-10-3.85,0-6.71,2.51-8.54,5.42a8.13,8.13,0,0,0-8-5.42,8.53,8.53,0,0,0-7.75,4.48l-.09-.09ZM695.16,415c0-7.75-3-13.81-11.29-13.81-7.35,0-11,6.41-11,13.12s3.45,13.12,10.85,13.12c6,0,9.67-2.71,11.2-8.63h-3.11a7.38,7.38,0,0,1-7.15,5.92c-6.07,0-8.49-4.44-8.59-9.72Zm-19-2.71c.4-4.35,3-8.39,7.8-8.39,5.13,0,7.69,3.6,8,8.39Zm26.65.14c0-4.44,2.22-8.53,7.11-8.53,4,0,6.51,2.51,6.51,6.81v16h3V411.17c0-2.86-.64-10-8.73-10a8.53,8.53,0,0,0-7.75,4.48l-.1-.09-.15-3.65h-3c.09,1.67.24,3.65.24,5.57v19.19h3Zm24.12,7.65c0,3.35-.34,7.35,5.92,7.35a12.65,12.65,0,0,0,3-.44v-2.57a8.6,8.6,0,0,1-2.56.3c-2.27,0-3.46-1.24-3.41-3.51V404.61h5.63V401.9h-5.63v-6.57l-3,1.29v5.28H722v2.71h4.93Zm14-.3c0-6.21,8.78-5.42,13-5.57.29,5.18-.94,10.51-7.4,10.51C743.44,424.69,740.87,423.11,740.87,419.75Zm13-8.28c-3.61.19-7.9-.3-11.2,1.13a7.64,7.64,0,0,0-5,7.15c0,4.84,3.66,7.65,8.24,7.65,3.36,0,6.66-2,7.75-4l.15-.35h.1l.09,3.65h3.06c-.1-1.68-.29-3.65-.24-5.57V409.34c.09-5.67-3.31-8.18-8.79-8.18-4.73,0-8.53,1.92-9.27,7h3.16c.39-3.35,3-4.29,6.07-4.29,3.5,0,5.57,1.28,5.87,5.33ZM765.53,391h-3v35.62h3Zm43,26.25c0-12.29-20.13-7.7-20.13-17.81,0-4.34,4.59-6.22,8.29-6.22s7.64,1.14,7.74,5.53h3.45c-.78-6.86-6.9-8.49-11.59-8.49-5.62,0-11.35,3.41-11.35,9.62,0,7.7,8.79,9.52,14.56,11.45,3,1,5.57,2.66,5.57,6.21,0,4.54-4.59,6.86-8.58,6.86-4.79,0-8.83-1.58-8.93-7.05h-3.45a10.3,10.3,0,0,0,10.6,10c7.16,0,13.82-2.37,13.82-10.11Zm6.75,2.76c0,3.35-.35,7.35,5.92,7.35a12.65,12.65,0,0,0,3-.44v-2.57a8.63,8.63,0,0,1-2.57.3c-2.27,0-3.45-1.24-3.4-3.51V404.61h5.62V401.9h-5.62v-6.57l-3,1.29v5.28h-4.93v2.71h4.93Zm28.75-3.9c0,4.44-2.22,8.54-7.1,8.54-4.05,0-6.51-2.52-6.51-6.81v-16h-3v15.49c0,2.86.64,10,8.73,10a8.51,8.51,0,0,0,7.74-4.49l.1.1.15,3.65h3.06c-.1-1.68-.25-3.65-.25-5.57V401.9h-3Zm26.09-2.46c0,5.62-2,11-8.44,11-5.67,0-7-6.27-7-10.86s1.82-10,7.45-10S870.14,408.65,870.14,413.69Zm.24,13h3.06c-.1-1.68-.24-3.65-.24-5.57V391h-3v14.51l-.1.09a9.9,9.9,0,0,0-8.49-4.48c-7.35,0-10.16,6.61-10.16,13,0,6.22,2.81,13.22,10.16,13.22a10.06,10.06,0,0,0,8.49-4.59l.1.2Zm8.55-24.76v24.76h3V401.9ZM882.14,391h-3.46v3.7h3.46ZM908.69,415c0-7.75-3-13.81-11.3-13.81-7.35,0-11,6.41-11,13.12s3.46,13.12,10.86,13.12c6,0,9.67-2.71,11.2-8.63h-3.11a7.38,7.38,0,0,1-7.16,5.92c-6.06,0-8.48-4.44-8.58-9.72Zm-19-2.71c.39-4.35,3-8.39,7.79-8.39,5.13,0,7.7,3.6,8,8.39Zm22.86-4.2c0,4.59,4,5.72,7.84,6.66s7.85,1.48,7.85,5-3.31,4.94-6.46,4.94c-3.36,0-6.62-1.09-6.86-4.79h-3.21c.1,5.48,5,7.5,9.33,7.5,5.22,0,10.4-2.52,10.4-8.09a6,6,0,0,0-4.19-5.77c-6.71-2.37-11.49-2-11.49-5.68,0-2.91,2.81-4,5.57-4,3.06,0,5.82,1,6.12,4.14h3.21c-.4-5.23-4.35-6.85-9-6.85-4.34,0-9.08,1.77-9.08,6.9" transform="translate(-100.6 -329.69)"/><path id="path158" class="cls-4" d="M509.1,348.71c-.49-6.41-6-9.07-11.84-9.07-10.75,0-15.34,8.78-15.34,18.54s4.54,18.55,15.34,18.55c5.72,0,11.2-3.4,12.24-9.37H506c-.89,4.44-4.83,6.41-8.78,6.41-9.13,0-11.89-8.28-11.89-15.59s2.76-15.58,11.89-15.58c4.05,0,7.8,1.77,8.39,6.11Zm26.33,15.59c0-7.74-3-13.81-11.3-13.81-7.35,0-11,6.41-11,13.12s3.46,13.12,10.86,13.12c6,0,9.66-2.71,11.19-8.63H532a7.38,7.38,0,0,1-7.16,5.92c-6.07,0-8.48-4.44-8.58-9.72Zm-19-2.71c.39-4.34,3-8.39,7.79-8.39,5.13,0,7.7,3.6,8,8.39Zm26.65.15c0-4.44,2.22-8.54,7.1-8.54,4.05,0,6.51,2.52,6.51,6.81v16h3V360.5c0-2.86-.64-10-8.73-10a8.5,8.5,0,0,0-7.74,4.49l-.1-.1-.15-3.65h-3.06c.1,1.68.25,3.65.25,5.57V376h3Zm24.12,7.64c0,3.36-.35,7.35,5.92,7.35a12.23,12.23,0,0,0,3-.44v-2.57a8.63,8.63,0,0,1-2.57.3c-2.27,0-3.45-1.23-3.4-3.5V353.94h5.62v-2.71h-5.62v-6.56l-3,1.28v5.28h-4.94v2.71h4.94Zm32.47-5.08c0-7.74-3-13.81-11.29-13.81-7.36,0-11.06,6.41-11.06,13.12s3.46,13.12,10.86,13.12c6,0,9.67-2.71,11.2-8.63h-3.11a7.38,7.38,0,0,1-7.15,5.92c-6.07,0-8.49-4.44-8.59-9.72Zm-19-2.71c.39-4.34,3-8.39,7.79-8.39,5.14,0,7.7,3.6,8,8.39Zm26.65-.49c.1-4.74,2.42-7.9,6.81-7.9.59,0,1.23.15,1.82.2v-2.86a29.19,29.19,0,0,0-3-.05,6.37,6.37,0,0,0-5.57,4.39h-.1l-.15-3.65H604c.1,1.68.3,3.65.25,5.57V376h3ZM637.53,376V353.94h5.62v-2.71h-5.62v-3.16c-.15-3.55,0-5.57,4-5.57a12.49,12.49,0,0,1,1.82.19v-2.36a13.31,13.31,0,0,0-2.81-.55c-4.24,0-6,1.93-6,6.17v5.28h-5v2.71h5V376Zm26.7-12.38c0,4.59-2.37,10.41-8.33,10.41s-8.34-5.82-8.34-10.41,2.37-10.41,8.34-10.41S664.23,359,664.23,363.61Zm-8.33-13.12c-7.9,0-11.55,6.61-11.55,13.12s3.65,13.12,11.55,13.12,11.54-6.61,11.54-13.12S663.79,350.49,655.9,350.49Zm18.84,10.61c.1-4.74,2.42-7.9,6.81-7.9.59,0,1.23.15,1.82.2v-2.86a29.19,29.19,0,0,0-3-.05,6.37,6.37,0,0,0-5.57,4.39h-.1l-.15-3.65h-3.06c.1,1.68.3,3.65.25,5.57V376h3V361.1" transform="translate(-100.6 -329.69)"/><path id="path160" class="cls-4" d="M499.57,472.83v-1.92H488V449.72h-2.08v23.11Zm2.73-16.07v16.07h1.92V456.76Zm2.08-7h-2.24v2.4h2.24Zm7.23,23.11V458.52h3.64v-1.76h-3.64v-2.05c-.1-2.3,0-3.61,2.59-3.61a6.76,6.76,0,0,1,1.18.13v-1.54a8.49,8.49,0,0,0-1.82-.35c-2.75,0-3.87,1.25-3.87,4v3.42h-3.24v1.76h3.24v14.31Zm19.2-7.59c0-5-1.95-9-7.33-9-4.77,0-7.17,4.16-7.17,8.51s2.24,8.52,7,8.52c3.87,0,6.27-1.76,7.27-5.6h-2a4.8,4.8,0,0,1-4.64,3.84c-3.94,0-5.5-2.88-5.57-6.31Zm-12.35-1.76c.25-2.81,1.92-5.44,5-5.44,3.33,0,5,2.34,5.22,5.44Zm39.36,3.27c0-8-13.06-5-13.06-11.56,0-2.81,3-4,5.38-4s5,.74,5,3.59h2.24c-.51-4.45-4.48-5.51-7.52-5.51-3.65,0-7.36,2.21-7.36,6.24,0,5,5.7,6.18,9.44,7.43,1.95.64,3.62,1.72,3.62,4,0,2.94-3,4.45-5.57,4.45-3.11,0-5.73-1-5.79-4.58H542a6.69,6.69,0,0,0,6.88,6.5c4.64,0,9-1.54,9-6.56Zm16-5.06c-.16-3.42-2.85-5.41-6.15-5.41-4.77,0-7.17,4.16-7.17,8.51s2.24,8.52,7,8.52c3.65,0,5.76-1.83,6.28-5.51H571.7a4.07,4.07,0,0,1-4.39,3.75c-2.94,0-4.77-3.11-4.77-6.79s1.83-6.72,4.77-6.72c2.66,0,4.23,1.19,4.39,3.65Zm2.88-4.93v16.07h1.92V456.76Zm2.08-7H576.5v2.4h2.24Zm17.37,15.52c0-5-2-9-7.33-9-4.77,0-7.17,4.16-7.17,8.51s2.24,8.52,7,8.52c3.87,0,6.27-1.76,7.27-5.6h-2a4.8,4.8,0,0,1-4.64,3.84c-3.94,0-5.5-2.88-5.57-6.31Zm-12.35-1.76c.25-2.81,1.92-5.44,5-5.44,3.33,0,5,2.34,5.22,5.44Zm17.42.1c0-2.88,1.44-5.54,4.61-5.54,2.62,0,4.22,1.63,4.22,4.42v10.37h1.92V462.78c0-1.86-.41-6.5-5.66-6.5a5.52,5.52,0,0,0-5,2.91l-.07-.06-.09-2.37h-2c.07,1.09.16,2.37.16,3.62v12.45h1.92Zm27.08-1.89c-.16-3.42-2.84-5.41-6.14-5.41-4.77,0-7.17,4.16-7.17,8.51s2.24,8.52,7,8.52c3.65,0,5.76-1.83,6.27-5.51h-2.08a4.06,4.06,0,0,1-4.38,3.75c-2.94,0-4.77-3.11-4.77-6.79s1.83-6.72,4.77-6.72c2.66,0,4.22,1.19,4.38,3.65Zm16.4,3.55c0-5-1.95-9-7.32-9-4.77,0-7.17,4.16-7.17,8.51s2.24,8.52,7,8.52c3.87,0,6.27-1.76,7.26-5.6h-2a4.8,4.8,0,0,1-4.64,3.84c-3.94,0-5.51-2.88-5.57-6.31Zm-12.35-1.76c.26-2.81,1.92-5.44,5.06-5.44,3.33,0,5,2.34,5.21,5.44Zm15-2.72c0,3,2.56,3.71,5.09,4.32s5.09,1,5.09,3.27-2.14,3.2-4.19,3.2-4.29-.71-4.45-3.11h-2.08c.06,3.55,3.26,4.87,6,4.87,3.39,0,6.75-1.64,6.75-5.25a3.92,3.92,0,0,0-2.72-3.75c-4.35-1.53-7.46-1.31-7.46-3.68,0-1.88,1.83-2.59,3.62-2.59,2,0,3.78.67,4,2.69H659c-.26-3.39-2.82-4.45-5.86-4.45-2.81,0-5.89,1.15-5.89,4.48" transform="translate(-100.6 -329.69)"/></g></g></svg>